<svg xmlns="http://www.w3.org/2000/svg" width="262.514" height="40" viewBox="0 0 262.514 40"><path d="M379.62,78.546,378.413,76.3l-.72.965v1.283h-.644V73.97h.644V76.3l1.765-2.328h.72l-1.363,1.85,1.524,2.726Z" transform="translate(-217.424 -42.654)" fill="#595a5c"/><path d="M387.316,76.7v1.846h-.639V76.7L385.39,73.97h.724l.881,2.011.885-2.011h.724L387.316,76.7Z" transform="translate(-222.233 -42.654)" fill="#595a5c"/><path d="M396.008,78.657a1.494,1.494,0,0,1-1.524-1.6V74h.639v3.052a.847.847,0,0,0,.881.965.914.914,0,0,0,.885-.965V74h.644v3.052a1.545,1.545,0,0,1-1.524,1.6Z" transform="translate(-227.475 -42.672)" fill="#595a5c"/><path d="M407,78.546l-2.007-3.209v3.209h-.643V73.97h.643l1.926,3.213V73.97h.639v4.576Z" transform="translate(-233.166 -42.654)" fill="#595a5c"/><path d="M417.236,78.081a1.406,1.406,0,0,1-1.122.572,1.626,1.626,0,0,1-1.126-.478c-.4-.483-.4-.965-.4-1.85s0-1.444.4-1.846A1.35,1.35,0,0,1,416.114,74a1.562,1.562,0,0,1,1.524,1.367h-.643c-.161-.483-.4-.724-.881-.724a.914.914,0,0,0-.643.241c-.241.241-.241.483-.241,1.444,0,.885,0,1.126.241,1.367a.733.733,0,0,0,.643.322.961.961,0,0,0,.881-1.054v-.241h-.881v-.643h1.524v.72a1.659,1.659,0,0,1-.423,1.27Z" transform="translate(-239.071 -42.668)" fill="#595a5c"/><path d="M425.859,74.631h-.965v1.524h.965a.635.635,0,0,0,.72-.72C426.578,74.953,426.337,74.631,425.859,74.631Zm.08,2.168h-1.046v1.765h-.644V74h1.693a1.3,1.3,0,0,1,1.27,1.448,1.27,1.27,0,0,1-1.27,1.363Z" transform="translate(-244.642 -42.672)" fill="#595a5c"/><path d="M435.328,74.854a.974.974,0,0,0-1.27,0c-.241.241-.241.483-.241,1.444,0,.885,0,1.126.241,1.367a.8.8,0,0,0,1.27,0c.161-.241.241-.483.241-1.367C435.569,75.337,435.488,75.1,435.328,74.854Zm.483,3.294a1.558,1.558,0,0,1-2.248,0c-.4-.483-.4-.965-.4-1.85s0-1.444.4-1.846a1.549,1.549,0,0,1,2.248,0c.4.423.4.965.4,1.846S436.212,77.665,435.81,78.148Z" transform="translate(-249.78 -42.654)" fill="#595a5c"/><path d="M444.618,74.868a.623.623,0,0,0-.559-.241c-.322,0-.563.08-.643.241-.241.241-.322.483-.322,1.444,0,.885.08,1.126.322,1.367.08.241.322.322.643.322a.538.538,0,0,0,.559-.322c.241-.241.322-.483.322-1.367C444.939,75.351,444.859,75.109,444.618,74.868Zm.563,3.294a2.015,2.015,0,0,1-1.122.491,1.626,1.626,0,0,1-1.126-.478c-.483-.483-.483-.965-.483-1.85s0-1.444.483-1.846A1.35,1.35,0,0,1,444.059,74a1.587,1.587,0,0,1,1.122.483c.423.423.423.965.423,1.846s0,1.367-.423,1.85Z" transform="translate(-255.137 -42.668)" fill="#595a5c"/><path d="M454.88,78.546,453.673,76.3l-.72.965v1.283h-.643V73.97h.643V76.3l1.765-2.328h.8l-1.444,1.85,1.524,2.726Z" transform="translate(-260.822 -42.654)" fill="#595a5c"/><path d="M468.23,78.546l-2.007-3.209v3.209h-.643V73.97h.563l2.007,3.213V73.97h.639v4.576Z" transform="translate(-268.474 -42.654)" fill="#595a5c"/><path d="M476.71,75.033l-.644,2.007h1.27l-.643-2.007Zm1.122,3.531-.317-.881h-1.693l-.318.881h-.643L476.388,74h.563l1.524,4.576Z" transform="translate(-273.826 -42.672)" fill="#595a5c"/><path d="M486.115,74.613v3.933h-.643V74.613H484.35V73.97h2.968v.643Z" transform="translate(-279.298 -42.654)" fill="#595a5c"/><rect width="0.72" height="4.657" transform="translate(208.824 31.316)" fill="#595a5c"/><path d="M499.6,74.855a.978.978,0,0,0-1.27,0c-.157.241-.237.483-.237,1.444,0,.885.08,1.126.237,1.367a.8.8,0,0,0,1.27,0c.241-.241.241-.483.241-1.367C499.839,75.337,499.839,75.1,499.6,74.855Zm.478,3.294a1.554,1.554,0,0,1-2.244,0c-.4-.483-.4-.965-.4-1.85s0-1.444.4-1.846a1.545,1.545,0,0,1,2.244,0c.4.423.4.965.4,1.846S500.478,77.666,500.076,78.148Z" transform="translate(-286.84 -42.654)" fill="#595a5c"/><path d="M509.855,78.546l-1.926-3.209v3.209h-.639V73.97h.559l1.926,3.213V73.97h.724v4.576Z" transform="translate(-292.526 -42.654)" fill="#595a5c"/><path d="M518.328,75.033l-.644,2.007h1.27l-.639-2.007Zm1.122,3.531-.242-.881h-1.693l-.322.881h-.644L518.087,74h.479l1.609,4.576Z" transform="translate(-297.866 -42.672)" fill="#595a5c"/><path d="M526.81,78.546V73.97h.643v3.937h2.087v.639Z" transform="translate(-303.782 -42.654)" fill="#595a5c"/><path d="M540.273,78.657a1.5,1.5,0,0,1-1.528-1.6V74h.643v3.052a.847.847,0,0,0,.885.965.91.91,0,0,0,.881-.965V74h.66v3.052a1.495,1.495,0,0,1-1.524,1.6Z" transform="translate(-310.662 -42.672)" fill="#595a5c"/><path d="M551.26,78.546l-2.007-3.209v3.209h-.644V73.97h.644l1.926,3.213V73.97h.643v4.576Z" transform="translate(-316.353 -42.654)" fill="#595a5c"/><rect width="0.724" height="4.657" transform="translate(236.672 31.316)" fill="#595a5c"/><path d="M564.3,78.546h-.483L562.45,73.97h.643l.961,3.374.965-3.374h.72L564.3,78.546Z" transform="translate(-324.334 -42.654)" fill="#595a5c"/><path d="M571.93,78.546V73.97h2.726v.643h-2.083v1.367h1.765v.559h-1.765v1.367h2.083v.639Z" transform="translate(-329.8 -42.654)" fill="#595a5c"/><path d="M582.254,74.63h-.965v1.448h.965a.724.724,0,1,0,0-1.448Zm.724,3.933-.885-1.926h-.8v1.926h-.639V74h1.693a1.245,1.245,0,0,1,1.27,1.367,1.27,1.27,0,0,1-.8,1.173l.944,2.024Z" transform="translate(-334.829 -42.671)" fill="#595a5c"/><path d="M590.814,78.649a1.659,1.659,0,0,1-1.444-.639l.423-.483a1.228,1.228,0,0,0,1.113.47c.563,0,.88-.241.88-.724a.689.689,0,0,0-.237-.483.474.474,0,0,0-.423-.161l-.555-.1a1.52,1.52,0,0,1-.8-.423,1.218,1.218,0,0,1-.322-.8,1.329,1.329,0,0,1,1.456-1.317,2.011,2.011,0,0,1,1.363.483l-.4.483a1.27,1.27,0,0,0-.965-.423.741.741,0,0,0-.813.728.635.635,0,0,0,.157.4.694.694,0,0,0,.483.241l.483.076a1.515,1.515,0,0,1,.8.322,1.333,1.333,0,0,1,.423.965,1.423,1.423,0,0,1-1.6,1.363Z" transform="translate(-339.857 -42.663)" fill="#595a5c"/><rect width="0.724" height="4.657" transform="translate(253.446 31.316)" fill="#595a5c"/><path d="M604.215,74.613v3.933h-.643V74.613H602.45V73.97h2.968v.643Z" transform="translate(-347.4 -42.654)" fill="#595a5c"/><path d="M612.146,76.7v1.846h-.639V76.7L610.22,73.97h.724l.881,2.011.885-2.011h.72L612.146,76.7Z" transform="translate(-351.88 -42.654)" fill="#595a5c"/><path d="M477.743,30h6.579V27.579H478.7V16.339H484V13.85h-8.184V28.142A1.77,1.77,0,0,0,477.743,30Z" transform="translate(-274.376 -7.987)" fill="#595a5c"/><path d="M586.21,36.9V29.59h-2.892V36.9H580.19V29.59H577.3V36.9H573.45v2.489h19.741V36.9Z" transform="translate(-330.677 -17.063)" fill="#595a5c"/><path d="M443.129,41.363v6.744h-2.892V42.4h-13.8V40h6.833V37.988H425.39V35.66h18.86v2.328h-8.107V40h5.7a1.27,1.27,0,0,1,1.27,1.367Z" transform="translate(-245.299 -20.563)" fill="#595a5c"/><path d="M441.764,17.323v1.524H430.85V17.323Zm-12.68,3.937h15.571V13.47h-2.892v1.6H430.85v-1.6h-2.807v6.575a1.105,1.105,0,0,0,1.041,1.207Z" transform="translate(-246.826 -7.767)" fill="#595a5c"/><path d="M504.478,19.139h-2.726V13.28H498.94V30.223h2.811V21.629h2.726v8.594h2.811V13.28h-2.811v5.859Z" transform="translate(-287.711 -7.658)" fill="#595a5c"/><path d="M593.085,15.809v8.84h-2.891V16.6H575.91V14.213H591.4a1.5,1.5,0,0,1,1.693,1.6Z" transform="translate(-332.096 -8.188)" fill="#595a5c"/><path d="M531.1,18.124a2.443,2.443,0,0,1,2.57,2.328,2.443,2.443,0,0,1-2.57,2.333,2.493,2.493,0,0,1-2.566-2.333A2.49,2.49,0,0,1,531.1,18.124Zm-1.524-2.168a5,5,0,0,0-3.853,4.5c0,2.65,2.489,4.737,5.377,4.737s5.377-2.087,5.377-4.737a5.065,5.065,0,0,0-4.17-4.576v-.643h4.572v-2.4h-4.492V11.38h-2.811v1.448H525.48v2.4h4.234v.644l-.161.08Zm13.162,1.27v-5.08h-2.887v12.7h2.887V19.733h2.57V17.243Zm-1.27,9.072H526.547v2.489h13.4v5.4h2.807V27.442a1.1,1.1,0,0,0-1.27-1.126Z" transform="translate(-303.015 -6.562)" fill="#595a5c"/><path d="M392.8,48.413c-2.324,0-4.331-1.27-4.331-2.963,0-1.6,2.007-2.963,4.331-2.963,2.007,0,4.416,1.126,4.416,2.963C397.218,47.376,394.809,48.413,392.8,48.413Zm7.227-2.963h0c0-2.892-3.213-5.22-7.227-5.22s-7.222,2.328-7.222,5.22,3.209,5.22,7.222,5.22S400.029,48.341,400.029,45.45Z" transform="translate(-222.343 -23.198)" fill="#595a5c"/><path d="M391.948,13.09v2.248h-4.492v2.489h4.492v1.693h-4.572v2.422h4.572v2.892h2.964V13.09Zm-5.927.322h-8.84V15.66h6.511a4.5,4.5,0,0,1-.322,1.765c-1.537,4.517-6.511,5.3-6.511,5.3v2.18c10.355-1.444,9.873-10.681,9.873-10.681a.809.809,0,0,0-.724-.8Z" transform="translate(-217.314 -7.548)" fill="#595a5c"/><path d="M12.84,20.639l-.322-.965-.639.8H10.834l.643.881-.322.965.961-.309.885.643V21.591l.8-.644-.965-.318Zm1.524-4.581-.322-1.041-.559.885H12.438l.644.881-.322.965.961-.322.8.563V16.934l.885-.563-1.046-.322Zm2.57-1.27.961-.322.885.644-.08-1.046.881-.639L18.539,13.1l-.334-.978-.55.885H16.612l.643.8-.322.965Zm-.161,13.09h7.383a.347.347,0,0,0,.322-.322v-.334a.3.3,0,0,0-.322-.322H16.773c-.161,0-.241.08-.241.322v.322c0,.161.08.322.241.322Zm8.264,2.65H15.969a.292.292,0,0,0-.318.318v.322a.292.292,0,0,0,.318.322h9.068a.347.347,0,0,0,.322-.322v-.322A.347.347,0,0,0,25.037,30.528Zm13.645-12.62a2.963,2.963,0,0,1,.08,1.765,3.389,3.389,0,0,1-2.485,2.65.847.847,0,0,0-.563.483,2.51,2.51,0,0,1-2.731,1.846,12.836,12.836,0,0,0,.423-3.133,13.226,13.226,0,0,0-4.657-9.957,2.612,2.612,0,0,1,3.289-.08.775.775,0,0,0,.72.08,3.281,3.281,0,0,1,3.611.643,6.549,6.549,0,0,1,1.046,1.524,3.658,3.658,0,0,0,1.6,1.77,3.747,3.747,0,0,0-.322,2.409ZM34.19,33.724a5.368,5.368,0,0,1-1.046,1.367,3.759,3.759,0,0,0-1.2,2.163,3.074,3.074,0,0,0-2.307.487,8.92,8.92,0,0,1-1.765.559,3.657,3.657,0,0,1-3.289-1.524.635.635,0,0,0-.643-.423,2.421,2.421,0,0,1-2.489-1.926,12.773,12.773,0,0,0,11.058-8.179A2.506,2.506,0,0,1,33.547,29.3a.771.771,0,0,0,.241.8,3.568,3.568,0,0,1,.423,3.611Zm-13.725-.7a11.477,11.477,0,1,1,8.125-3.371A11.486,11.486,0,0,1,20.465,33.022Zm-3.387,3.387a.847.847,0,0,0-.724.423,3.268,3.268,0,0,1-3.289,1.524,3.692,3.692,0,0,1-1.693-.559,3.289,3.289,0,0,0-2.383-.542,3.323,3.323,0,0,0-1.122-2.087A4.475,4.475,0,0,1,6.82,33.72a3.23,3.23,0,0,1,.4-3.611.821.821,0,0,0,.161-.724,2.507,2.507,0,0,1,1.041-3.052A12.9,12.9,0,0,0,19.58,34.448,2.415,2.415,0,0,1,17.1,36.375ZM5.3,22.887a.8.8,0,0,0-.563-.563,3.243,3.243,0,0,1-2.485-2.65,4.267,4.267,0,0,1,0-1.765A3.289,3.289,0,0,0,1.926,15.5a3.226,3.226,0,0,0,1.693-1.77,4.6,4.6,0,0,1,1.037-1.452,3.425,3.425,0,0,1,3.531-.724.923.923,0,0,0,.8-.08,2.53,2.53,0,0,1,3.209.08,12.747,12.747,0,0,0-4.335,13.1A2.448,2.448,0,0,1,5.3,22.887ZM14.525,7.468a.783.783,0,0,0,.322-.724,3.15,3.15,0,0,1,1.765-3.129,4.555,4.555,0,0,1,1.693-.563,3.057,3.057,0,0,0,2.168-1.046,3.222,3.222,0,0,0,2.248,1.046,5.711,5.711,0,0,1,1.693.563A3.311,3.311,0,0,1,26.18,6.744a.741.741,0,0,0,.241.724,2.529,2.529,0,0,1,.961,3.133,12.819,12.819,0,0,0-6.9-2.011,12.62,12.62,0,0,0-6.935,1.994,2.6,2.6,0,0,1,.961-3.133ZM41.01,15.016l-.08-.08v-.08a.533.533,0,0,0-.322-.423l-.161-.038c-1.2-.483-1.363-.8-1.6-1.363A6.689,6.689,0,0,0,37.48,11.1,4.869,4.869,0,0,0,32.6,9.877a4.72,4.72,0,0,0-3.387-.4,4.009,4.009,0,0,0-1.444-2.963,4.733,4.733,0,0,0-2.646-4.344,5.83,5.83,0,0,0-2.261-.724c-.631-.08-.953-.174-1.753-1.122L20.948.161A.61.61,0,0,0,20.626,0h-.4l-.08.08-.161.08L19.9.241l-.08.08c-.8.948-1.118,1.041-1.761,1.122a5.8,5.8,0,0,0-2.244.724A5.076,5.076,0,0,0,13.162,6.5,3.937,3.937,0,0,0,11.8,9.555a4,4,0,0,0-3.387.4,4.687,4.687,0,0,0-4.881,1.2,5.567,5.567,0,0,0-1.363,1.85,2.408,2.408,0,0,1-1.6,1.363.847.847,0,0,0-.483.4v.08l-.08.08V15.1a1.143,1.143,0,0,0,.161.483c.72,1.041.643,1.355.483,2.007a7.354,7.354,0,0,0,0,2.328,4.847,4.847,0,0,0,3.289,3.853A4.064,4.064,0,0,0,6.418,26.1a3.954,3.954,0,0,0-.639,3.294,4.754,4.754,0,0,0-.423,5.08,4.716,4.716,0,0,0,1.363,1.846,2.36,2.36,0,0,1,.8,2.007.483.483,0,0,0,.08.322l.08.161a.72.72,0,0,0,.8.241c1.27-.322,1.6-.161,2.168.161a6.075,6.075,0,0,0,2.168.724A5.053,5.053,0,0,0,17.557,38a4.234,4.234,0,0,0,2.963-1.693,3.81,3.81,0,0,0,2.887,1.609,5.022,5.022,0,0,0,4.737,2.007,8.937,8.937,0,0,0,2.168-.8c.559-.322.881-.483,2.087-.08h.478l.186-.093.08-.08h.08v-.08l.08-.08v-.08h.08l.08-.161v-.161c.08-1.363.322-1.524.8-2.007a8.467,8.467,0,0,0,1.363-1.846,4.725,4.725,0,0,0-.423-5.08,3.869,3.869,0,0,0-.643-3.294,4.314,4.314,0,0,0,2.489-2.328A4.847,4.847,0,0,0,40.367,19.9a6.774,6.774,0,0,0-.08-2.328,2.217,2.217,0,0,1,.563-1.99l.08-.161c0-.161.08-.241.08-.322ZM27.366,17.425l.965.322-.322-.965.643-.881H27.607l-.644-.885-.318,1.041-.965.322.8.555V17.98l.881-.563Zm1.528,4.589,1.041.322-.4-.965.643-.881H29.131l-.559-.8-.322.965-1.046.318.885.622v1.046Zm-12.6,7.7h8.349a.3.3,0,0,0,.322-.322v-.423a.3.3,0,0,0-.322-.322H16.291a.347.347,0,0,0-.322.322v.423a.347.347,0,0,0,.322.322Zm1.444-6.181v.4a.3.3,0,0,0,.322.322h4.9a.347.347,0,0,0,.322-.322v-.4a.347.347,0,0,0-.322-.322h-4.9a.3.3,0,0,0-.322.322ZM22.311,15.1l.8-.643,1.041.322-.322-.965.643-.8H23.433l-.639-.885-.322.965-.965.322.8.639ZM18.3,22.4h4.335a.347.347,0,0,0,.322-.322V21.76a.347.347,0,0,0-.322-.322H18.3a.347.347,0,0,0-.322.322v.322a.347.347,0,0,0,.322.322Zm-1.041,2.963v.322a.292.292,0,0,0,.322.318h5.775a.292.292,0,0,0,.322-.318v-.322a.347.347,0,0,0-.322-.322H17.578A.347.347,0,0,0,17.256,25.367Zm.161-7.227v.318a.347.347,0,0,0,.318.322H23.2a.292.292,0,0,0,.318-.322v-.318c0-.241-.08-.4-.318-.4H17.734A.368.368,0,0,0,17.417,18.141Zm6.1,2.18V19.9a.292.292,0,0,0-.318-.322H17.734a.347.347,0,0,0-.318.322v.423a.347.347,0,0,0,.318.322H23.2a.292.292,0,0,0,.318-.322Z" fill="#da2429"/><path d="M172.811,44.413h8.044V23.2c0-9.877-7.62-9.394-8.429-9.394H150.982a3.433,3.433,0,0,1,1.926,3.387V44.413h7.946V18.8h9.314c.881,0,2.646.72,2.646,3.209v22.4Zm43.1,0V13.822h-7.946V39.435h-9.314c-.881,0-2.646-.72-2.646-3.209V13.885h-9.868s2.087.4,2.087,3.387V35.019c0,9.957,8.344,9.394,8.344,9.394ZM126.665,26.425l13.547,18.149h9.314L135.25,26.425l13.645-12.6h-8.044L126.745,26.345Zm-.322-12.54H116.39s2.007.4,2.007,3.45v27h7.946Z" transform="translate(-67.116 -7.958)" fill="#da2429"/></svg>